<svg xmlns="http://www.w3.org/2000/svg" viewBox="0 0 512 512"><defs><style>.cls-1{fill:#7cc8fb;}.cls-2{fill:#4acc97;}.cls-3{fill:#00b564;}.cls-4{fill:#fff;}.cls-5{fill:#27273d;}.cls-6{fill:#4f4f74;}.cls-7{fill:#3e436d;}.cls-8{fill:#db1b1b;}.cls-9{fill:#bf1919;}.cls-10{fill:#f6d372;}.cls-11{fill:#f7bb38;}.cls-12{fill:none;stroke:#f6d372;stroke-linecap:round;stroke-miterlimit:10;stroke-width:8px;}.cls-13{fill:#606089;}.cls-14{fill:#e0e0e0;}.cls-15{fill:#e2e2e2;}</style></defs><title>50-Computer-Hardware</title><g id="BULINE"><circle class="cls-1" cx="256" cy="256" r="256"/></g><g id="Icons"><path class="cls-2" d="M466.12,128.09V399.21a9.35,9.35,0,0,1-9.35,9.35h-27a9.35,9.35,0,0,1-9.35-9.35V369.94H357.59v29.27a9.35,9.35,0,0,1-9.35,9.35H179.94a9.35,9.35,0,0,1-9.35-9.35V369.94h-81V112.27H450.3A15.82,15.82,0,0,1,466.12,128.09Z"/><circle class="cls-3" cx="266.59" cy="241.1" r="93.53"/><circle class="cls-4" cx="277.86" cy="241.1" r="85.72"/><circle class="cls-5" cx="277.86" cy="241.1" r="76"/><path class="cls-6" d="M287.07,228.09l-15.23,15.22c-10.59-16.18-30.95-24.07-52.26-32.47a3.35,3.35,0,0,1-1.14-5.48L237.78,186a8,8,0,0,1,10.31-.81C263.93,196.65,276.42,211.45,287.07,228.09Z"/><path class="cls-6" d="M275.17,225.38v21.54c-18.94-3.95-38.91,4.86-59.92,14a3.34,3.34,0,0,1-4.68-3.07V230.49a8,8,0,0,1,6.72-7.86C236.58,219.52,255.87,221.15,275.17,225.38Z"/><path class="cls-6" d="M264.84,231.89l15.22,15.23c-16.18,10.59-24.07,30.95-32.46,52.26a3.35,3.35,0,0,1-5.48,1.14l-19.34-19.34a8,8,0,0,1-.82-10.31C233.41,255,248.2,242.54,264.84,231.89Z"/><path class="cls-6" d="M262.14,243.79h21.53c-3.95,18.94,4.86,38.91,14,59.92a3.35,3.35,0,0,1-3.07,4.68H267.25a8,8,0,0,1-7.87-6.72C256.27,282.38,257.9,263.09,262.14,243.79Z"/><path class="cls-6" d="M268.65,254.12l15.22-15.22c10.6,16.18,30.95,24.07,52.26,32.46a3.34,3.34,0,0,1,1.14,5.48l-19.34,19.34a8,8,0,0,1-10.31.82C291.78,285.55,279.29,270.76,268.65,254.12Z"/><path class="cls-6" d="M280.55,256.82V235.29c18.93,4,38.9-4.86,59.91-14a3.35,3.35,0,0,1,4.68,3.07v27.35a8,8,0,0,1-6.71,7.87C319.14,262.69,299.84,261.06,280.55,256.82Z"/><path class="cls-6" d="M290.88,250.31l-15.23-15.22c16.18-10.6,24.07-31,32.47-52.26a3.34,3.34,0,0,1,5.48-1.14L332.94,201a8,8,0,0,1,.81,10.31C322.31,227.18,307.51,239.67,290.88,250.31Z"/><path class="cls-6" d="M293.58,238.41H272c3.95-18.93-4.86-38.9-14-59.91a3.35,3.35,0,0,1,3.07-4.68h27.35a8,8,0,0,1,7.86,6.71C299.44,199.83,297.81,219.12,293.58,238.41Z"/><path class="cls-7" d="M281.77,238.41H272c3.95-18.93-4.86-38.9-14-59.91a3.34,3.34,0,0,1,3.07-4.68h9.72a3.35,3.35,0,0,0-3.07,4.68C276.9,199.51,285.72,219.48,281.77,238.41Z"/><path class="cls-7" d="M278.72,236.44l-6.88,6.87c-10.59-16.18-30.95-24.07-52.26-32.47a3.34,3.34,0,0,1-1.14-5.48l6.88-6.87a3.34,3.34,0,0,0,1.13,5.48C247.77,212.37,268.12,220.26,278.72,236.44Z"/><path class="cls-7" d="M275.17,237.19v9.73c-18.94-3.95-38.91,4.86-59.92,14a3.34,3.34,0,0,1-4.68-3.07v-9.72a3.35,3.35,0,0,0,4.68,3.07C236.26,242.06,256.23,233.24,275.17,237.19Z"/><path class="cls-7" d="M273.19,240.24l6.88,6.88c-16.19,10.59-24.07,30.95-32.47,52.26a3.35,3.35,0,0,1-5.48,1.14l-6.88-6.88a3.35,3.35,0,0,0,5.49-1.13C249.12,271.19,257,250.84,273.19,240.24Z"/><path class="cls-7" d="M274,243.79h9.72c-3.95,18.94,4.87,38.91,14,59.92a3.35,3.35,0,0,1-3.07,4.68h-9.73a3.35,3.35,0,0,0,3.08-4.68C278.81,282.7,270,262.73,274,243.79Z"/><path class="cls-7" d="M277,245.77l6.87-6.87c10.6,16.18,30.95,24.07,52.26,32.46a3.34,3.34,0,0,1,1.14,5.48l-6.87,6.88a3.35,3.35,0,0,0-1.14-5.48C307.94,269.84,287.59,262,277,245.77Z"/><path class="cls-7" d="M280.55,245v-9.72c18.93,4,38.9-4.86,59.91-14a3.35,3.35,0,0,1,4.68,3.07v9.73a3.35,3.35,0,0,0-4.68-3.08C319.45,240.15,299.48,249,280.55,245Z"/><path class="cls-7" d="M282.52,242l-6.87-6.87c16.18-10.6,24.07-31,32.47-52.26a3.34,3.34,0,0,1,5.48-1.14l6.87,6.87A3.35,3.35,0,0,0,315,189.7C306.59,211,298.71,231.37,282.52,242Z"/><circle class="cls-8" cx="277.86" cy="241.1" r="23.98"/><path class="cls-9" d="M283.45,264.42a24.3,24.3,0,0,1-5.63.66,24,24,0,1,1,5.63-47.29,24,24,0,0,0,0,46.63Z"/><path class="cls-10" d="M357.59,385.89v13.32a9.35,9.35,0,0,1-9.35,9.35H179.94a9.35,9.35,0,0,1-9.35-9.35V385.89Z"/><path class="cls-10" d="M466.12,385.89v13.32a9.35,9.35,0,0,1-9.35,9.35h-27a9.35,9.35,0,0,1-9.35-9.35V385.89Z"/><path class="cls-11" d="M181.26,385.89h13.33a0,0,0,0,1,0,0v12a3.5,3.5,0,0,1-3.5,3.5h-6.33a3.5,3.5,0,0,1-3.5-3.5v-12A0,0,0,0,1,181.26,385.89Z"/><path class="cls-11" d="M202.59,385.89h13.33a0,0,0,0,1,0,0v12a3.5,3.5,0,0,1-3.5,3.5h-6.33a3.5,3.5,0,0,1-3.5-3.5v-12A0,0,0,0,1,202.59,385.89Z"/><path class="cls-11" d="M223.93,385.89h13.33a0,0,0,0,1,0,0v12a3.5,3.5,0,0,1-3.5,3.5h-6.33a3.5,3.5,0,0,1-3.5-3.5v-12A0,0,0,0,1,223.93,385.89Z"/><path class="cls-11" d="M245.26,385.89h13.33a0,0,0,0,1,0,0v12a3.5,3.5,0,0,1-3.5,3.5h-6.33a3.5,3.5,0,0,1-3.5-3.5v-12A0,0,0,0,1,245.26,385.89Z"/><path class="cls-11" d="M266.59,385.89h13.33a0,0,0,0,1,0,0v12a3.5,3.5,0,0,1-3.5,3.5h-6.33a3.5,3.5,0,0,1-3.5-3.5v-12A0,0,0,0,1,266.59,385.89Z"/><path class="cls-11" d="M287.93,385.89h13.33a0,0,0,0,1,0,0v12a3.5,3.5,0,0,1-3.5,3.5h-6.33a3.5,3.5,0,0,1-3.5-3.5v-12A0,0,0,0,1,287.93,385.89Z"/><path class="cls-11" d="M309.26,385.89h13.33a0,0,0,0,1,0,0v12a3.5,3.5,0,0,1-3.5,3.5h-6.33a3.5,3.5,0,0,1-3.5-3.5v-12A0,0,0,0,1,309.26,385.89Z"/><path class="cls-11" d="M330.59,385.89h13.33a0,0,0,0,1,0,0v12a3.5,3.5,0,0,1-3.5,3.5h-6.33a3.5,3.5,0,0,1-3.5-3.5v-12A0,0,0,0,1,330.59,385.89Z"/><path class="cls-11" d="M425.91,385.89h13.33a0,0,0,0,1,0,0v12a3.5,3.5,0,0,1-3.5,3.5h-6.33a3.5,3.5,0,0,1-3.5-3.5v-12A0,0,0,0,1,425.91,385.89Z"/><path class="cls-11" d="M447.25,385.89h13.33a0,0,0,0,1,0,0v12a3.5,3.5,0,0,1-3.5,3.5h-6.33a3.5,3.5,0,0,1-3.5-3.5v-12A0,0,0,0,1,447.25,385.89Z"/><rect class="cls-3" x="89.59" y="112.27" width="32" height="257.67"/><line class="cls-12" x1="385.88" y1="158.89" x2="451.38" y2="158.89"/><line class="cls-12" x1="385.88" y1="180.71" x2="451.38" y2="180.71"/><line class="cls-12" x1="385.88" y1="202.52" x2="451.38" y2="202.52"/><rect class="cls-6" x="398.3" y="144.89" width="40.66" height="70.62" rx="5.89"/><path class="cls-7" d="M413.69,215.51h-9.5a5.89,5.89,0,0,1-5.89-5.89V150.78a5.89,5.89,0,0,1,5.89-5.89h9.5a5.89,5.89,0,0,0-5.89,5.89v58.84A5.89,5.89,0,0,0,413.69,215.51Z"/><line class="cls-12" x1="385.88" y1="275.2" x2="451.38" y2="275.2"/><line class="cls-12" x1="385.88" y1="297.01" x2="451.38" y2="297.01"/><line class="cls-12" x1="385.88" y1="318.83" x2="451.38" y2="318.83"/><rect class="cls-6" x="398.3" y="261.2" width="40.66" height="70.62" rx="5.89"/><path class="cls-7" d="M413.69,331.82h-9.5a5.89,5.89,0,0,1-5.89-5.89V267.09a5.89,5.89,0,0,1,5.89-5.89h9.5a5.89,5.89,0,0,0-5.89,5.89v58.84A5.89,5.89,0,0,0,413.69,331.82Z"/><line class="cls-12" x1="106.31" y1="275.2" x2="171.81" y2="275.2"/><line class="cls-12" x1="106.31" y1="297.01" x2="171.81" y2="297.01"/><line class="cls-12" x1="106.31" y1="318.83" x2="171.81" y2="318.83"/><rect class="cls-6" x="118.73" y="261.2" width="40.66" height="70.62" rx="5.89"/><path class="cls-7" d="M134.12,331.82h-9.5a5.89,5.89,0,0,1-5.89-5.89V267.09a5.89,5.89,0,0,1,5.89-5.89h9.5a5.89,5.89,0,0,0-5.89,5.89v58.84A5.89,5.89,0,0,0,134.12,331.82Z"/><line class="cls-12" x1="106.31" y1="158.89" x2="171.81" y2="158.89"/><line class="cls-12" x1="106.31" y1="180.7" x2="171.81" y2="180.7"/><line class="cls-12" x1="106.31" y1="202.52" x2="171.81" y2="202.52"/><rect class="cls-6" x="118.73" y="144.89" width="40.66" height="70.62" rx="5.89"/><path class="cls-7" d="M134.12,215.51h-9.5a5.89,5.89,0,0,1-5.89-5.89V150.78a5.89,5.89,0,0,1,5.89-5.89h9.5a5.89,5.89,0,0,0-5.89,5.89v58.84A5.89,5.89,0,0,0,134.12,215.51Z"/><circle class="cls-13" cx="425.91" cy="170.93" r="6.3"/><circle class="cls-13" cx="425.91" cy="157.8" r="4.46"/><circle class="cls-13" cx="425.91" cy="286.3" r="6.3"/><circle class="cls-13" cx="425.91" cy="273.17" r="4.46"/><circle class="cls-13" cx="145.36" cy="170.93" r="6.3"/><circle class="cls-13" cx="145.36" cy="157.8" r="4.46"/><circle class="cls-13" cx="145.36" cy="286.3" r="6.3"/><circle class="cls-13" cx="145.36" cy="273.17" r="4.46"/><circle class="cls-4" cx="217.46" cy="352.39" r="15.6" transform="translate(-118.3 110.04) rotate(-22.5)"/><path class="cls-14" d="M233.06,352.39a15.6,15.6,0,0,1-15.6,15.6v-31.2A15.6,15.6,0,0,1,233.06,352.39Z"/><circle class="cls-4" cx="315.93" cy="352.39" r="15.6" transform="translate(-110.8 147.72) rotate(-22.5)"/><path class="cls-14" d="M331.53,352.39a15.6,15.6,0,0,1-15.6,15.6v-31.2A15.6,15.6,0,0,1,331.53,352.39Z"/><path class="cls-4" d="M64.53,73.5H30.09A5.47,5.47,0,0,0,24.62,79V93.08a5.47,5.47,0,0,0,5.47,5.47H64.53v46.34H40a3.42,3.42,0,0,0-3.42,3.41v70.5A3.42,3.42,0,0,0,40,222.22H64.53V292.6H40A3.42,3.42,0,0,0,36.59,296v44.46A3.42,3.42,0,0,0,40,343.89H64.53v61A5.47,5.47,0,0,0,70,410.33H84.12a5.47,5.47,0,0,0,5.47-5.47V76.94a3.44,3.44,0,0,0-3.44-3.44Z"/><rect class="cls-15" x="52.59" y="144.89" width="11.94" height="77.33"/><rect class="cls-15" x="52.59" y="292.6" width="11.94" height="51.29"/><path class="cls-5" d="M54.55,275.2h10a0,0,0,0,1,0,0v11.1a0,0,0,0,1,0,0h-10a2,2,0,0,1-2-2v-7.19A2,2,0,0,1,54.55,275.2Z"/><path class="cls-5" d="M54.55,349.95h10a0,0,0,0,1,0,0V361a0,0,0,0,1,0,0h-10a2,2,0,0,1-2-2V351.9A2,2,0,0,1,54.55,349.95Z"/></g></svg>